<svg data-logo="logo" xmlns="http://www.w3.org/2000/svg" viewBox="0 0 255 42">
        <g style="opacity: 1;" id="logogram" transform="translate(0, 1) rotate(0)"><path d="M33.724 36.5809C37.7426 32.5622 40.0003 27.1118 40.0003 21.4286C40.0003 15.7454 37.7426 10.2949 33.724 6.27629C29.7054 2.25765 24.2549 1.02188e-06 18.5717 0C12.8885 -1.02188e-06 7.43807 2.25764 3.41943 6.27628L10.4905 13.3473C11.6063 14.4631 13.4081 14.4074 14.8276 13.7181C15.9836 13.1568 17.2622 12.8571 18.5717 12.8571C20.845 12.8571 23.0252 13.7602 24.6326 15.3677C26.2401 16.9751 27.1431 19.1553 27.1431 21.4286C27.1431 22.7381 26.8435 24.0167 26.2822 25.1727C25.5929 26.5922 25.5372 28.394 26.6529 29.5098L33.724 36.5809Z" fill="#FFFFFF"></path><path d="M30 40H19.5098C17.9943 40 16.5408 39.398 15.4692 38.3263L1.67368 24.5308C0.60204 23.4592 0 22.0057 0 20.4902V10L30 40Z" fill="#34C2FF"></path><path d="M10.7143 39.9999H4.28571C1.91878 39.9999 0 38.0812 0 35.7142V29.2856L10.7143 39.9999Z" fill="#34C2FF"></path></g>
        <g style="opacity: 1;" id="logotype" transform="translate(46, 1)"><path fill="#ffffff" d="M19.64 33L13.67 33L6.84 7.54L12.53 7.54L15.48 20.06Q15.84 21.64 16.14 23.42Q16.44 25.21 16.73 27.01Q17.02 28.81 17.30 30.47L17.30 30.47L16.37 30.47Q16.68 28.81 16.99 27.01Q17.30 25.21 17.62 23.42Q17.95 21.64 18.34 20.06L18.34 20.06L21.45 7.54L26.87 7.54L29.96 20.06Q30.35 21.64 30.68 23.42Q31.00 25.21 31.32 27.01Q31.63 28.81 31.94 30.47L31.94 30.47L30.99 30.47Q31.28 28.81 31.56 27.01Q31.84 25.21 32.16 23.42Q32.47 21.64 32.81 20.06L32.81 20.06L35.77 7.54L41.48 7.54L34.63 33L28.68 33L25.29 19.98Q24.75 17.81 24.36 15.27Q23.98 12.73 23.50 10.07L23.50 10.07L24.80 10.07Q24.27 12.68 23.94 15.18Q23.60 17.67 23.00 19.98L23.00 19.98L19.64 33ZM50.86 33.38L50.86 33.38Q47.94 33.38 45.82 32.18Q43.70 30.98 42.56 28.78Q41.43 26.57 41.43 23.55L41.43 23.55Q41.43 20.59 42.55 18.37Q43.68 16.15 45.75 14.90Q47.82 13.65 50.60 13.65L50.60 13.65Q52.48 13.65 54.11 14.25Q55.73 14.85 56.96 16.06Q58.19 17.26 58.88 19.07Q59.57 20.88 59.57 23.34L59.57 23.34L59.57 24.78L43.53 24.78L43.53 21.57L57.06 21.57L54.67 22.42Q54.67 20.93 54.22 19.83Q53.76 18.73 52.87 18.12Q51.97 17.52 50.64 17.52L50.64 17.52Q49.32 17.52 48.39 18.13Q47.46 18.75 46.98 19.80Q46.50 20.85 46.50 22.20L46.50 22.20L46.50 24.47Q46.50 26.13 47.06 27.26Q47.61 28.39 48.61 28.95Q49.61 29.51 50.94 29.51L50.94 29.51Q51.85 29.51 52.58 29.26Q53.32 29.00 53.84 28.50Q54.36 27.99 54.64 27.26L54.64 27.26L59.28 28.13Q58.82 29.70 57.68 30.89Q56.53 32.08 54.82 32.73Q53.10 33.38 50.86 33.38ZM66.14 33.38L66.14 33.38Q64.32 33.38 62.88 32.74Q61.44 32.09 60.61 30.82Q59.78 29.55 59.78 27.65L59.78 27.65Q59.78 26.06 60.37 24.98Q60.96 23.91 61.97 23.26Q62.99 22.61 64.28 22.27Q65.57 21.93 66.99 21.79L66.99 21.79Q68.65 21.62 69.66 21.47Q70.68 21.33 71.15 21.01Q71.62 20.70 71.62 20.08L71.62 20.08L71.62 19.99Q71.62 19.17 71.28 18.61Q70.94 18.05 70.27 17.75Q69.60 17.45 68.63 17.45L68.63 17.45Q67.64 17.45 66.90 17.75Q66.17 18.05 65.71 18.54Q65.25 19.04 65.02 19.65L65.02 19.65L60.32 18.87Q60.82 17.21 61.97 16.05Q63.11 14.88 64.81 14.27Q66.51 13.65 68.63 13.65L68.63 13.65Q70.19 13.65 71.64 14.02Q73.09 14.39 74.24 15.16Q75.40 15.93 76.07 17.16Q76.75 18.39 76.75 20.13L76.75 20.13L76.75 33L71.89 33L71.89 30.35L71.72 30.35Q71.26 31.24 70.49 31.91Q69.72 32.59 68.64 32.98Q67.55 33.38 66.14 33.38ZM67.59 29.77L67.59 29.77Q68.80 29.77 69.72 29.29Q70.63 28.81 71.14 27.99Q71.66 27.17 71.66 26.16L71.66 26.16L71.66 24.10Q71.43 24.27 70.97 24.40Q70.51 24.54 69.95 24.64Q69.38 24.75 68.84 24.83Q68.29 24.92 67.86 24.97L67.86 24.97Q66.92 25.10 66.20 25.41Q65.49 25.72 65.09 26.22Q64.70 26.73 64.70 27.51L64.70 27.51Q64.70 28.25 65.08 28.75Q65.45 29.26 66.09 29.51Q66.73 29.77 67.59 29.77ZM77.00 13.89L88.33 13.89L88.33 17.81L77.00 17.81L77.00 13.89ZM79.63 27.86L79.63 9.35L84.76 9.35L84.76 27.41Q84.76 28.32 85.16 28.75Q85.56 29.19 86.50 29.19L86.50 29.19Q86.79 29.19 87.32 29.11Q87.85 29.04 88.13 28.97L88.13 28.97L88.86 32.81Q88.01 33.07 87.16 33.17Q86.32 33.27 85.55 33.27L85.55 33.27Q82.68 33.27 81.15 31.87Q79.63 30.47 79.63 27.86L79.63 27.86ZM94.52 21.94L94.52 21.94L94.52 33L89.39 33L89.39 7.54L94.41 7.54L94.41 18.66L94.00 18.66Q94.76 16.27 96.29 14.96Q97.82 13.65 100.24 13.65L100.24 13.65Q102.22 13.65 103.70 14.52Q105.18 15.38 105.99 17.00Q106.80 18.61 106.80 20.85L106.80 20.85L106.80 33L101.68 33L101.68 21.74Q101.68 19.96 100.76 18.95Q99.85 17.94 98.23 17.94L98.23 17.94Q97.15 17.94 96.30 18.41Q95.46 18.88 94.99 19.77Q94.52 20.66 94.52 21.94ZM117.54 33.38L117.54 33.38Q114.61 33.38 112.49 32.18Q110.37 30.98 109.24 28.78Q108.10 26.57 108.10 23.55L108.10 23.55Q108.10 20.59 109.23 18.37Q110.36 16.15 112.43 14.90Q114.49 13.65 117.28 13.65L117.28 13.65Q119.16 13.65 120.78 14.25Q122.41 14.85 123.64 16.06Q124.87 17.26 125.56 19.07Q126.25 20.88 126.25 23.34L126.25 23.34L126.25 24.78L110.20 24.78L110.20 21.57L123.74 21.57L121.35 22.42Q121.35 20.93 120.89 19.83Q120.44 18.73 119.54 18.12Q118.65 17.52 117.31 17.52L117.31 17.52Q116.00 17.52 115.07 18.13Q114.13 18.75 113.66 19.80Q113.18 20.85 113.18 22.20L113.18 22.20L113.18 24.47Q113.18 26.13 113.73 27.26Q114.29 28.39 115.29 28.95Q116.29 29.51 117.62 29.51L117.62 29.51Q118.53 29.51 119.26 29.26Q120.00 29.00 120.52 28.50Q121.04 27.99 121.31 27.26L121.31 27.26L125.96 28.13Q125.50 29.70 124.35 30.89Q123.21 32.08 121.49 32.73Q119.77 33.38 117.54 33.38ZM132.61 33L127.48 33L127.48 13.89L132.44 13.89L132.44 17.23L132.64 17.23Q133.17 15.45 134.41 14.54Q135.65 13.64 137.25 13.64L137.25 13.64Q137.65 13.64 138.10 13.68Q138.55 13.72 138.91 13.81L138.91 13.81L138.91 18.39Q138.57 18.27 137.92 18.20Q137.27 18.13 136.69 18.13L136.69 18.13Q135.53 18.13 134.59 18.64Q133.65 19.14 133.13 20.04Q132.61 20.93 132.61 22.13L132.61 22.13L132.61 33ZM149.88 33L144.12 33L152.82 7.54L159.66 7.54L168.58 33L162.78 33L158.70 20.71Q157.96 18.34 157.20 15.51Q156.44 12.68 155.61 9.33L155.61 9.33L156.73 9.33Q155.93 12.70 155.22 15.54Q154.51 18.39 153.81 20.71L153.81 20.71L149.88 33ZM163.14 27.09L149.56 27.09L149.56 23.00L163.14 23.00L163.14 27.09ZM174.45 40.14L169.33 40.14L169.33 13.89L174.37 13.89L174.37 17.11L174.61 17.11Q174.97 16.35 175.62 15.55Q176.28 14.75 177.36 14.20Q178.44 13.65 180.06 13.65L180.06 13.65Q182.18 13.65 183.94 14.75Q185.70 15.84 186.75 18.03Q187.80 20.22 187.80 23.48L187.80 23.48Q187.80 26.66 186.77 28.86Q185.75 31.05 183.99 32.19Q182.23 33.32 180.02 33.32L180.02 33.32Q178.47 33.32 177.39 32.79Q176.32 32.27 175.64 31.49Q174.97 30.71 174.61 29.94L174.61 29.94L174.45 29.94L174.45 40.14ZM178.45 29.21L178.45 29.21Q179.79 29.21 180.70 28.47Q181.61 27.74 182.08 26.44Q182.55 25.14 182.55 23.46L182.55 23.46Q182.55 21.79 182.08 20.51Q181.61 19.23 180.71 18.49Q179.80 17.76 178.45 17.76L178.45 17.76Q177.14 17.76 176.21 18.47Q175.29 19.17 174.81 20.45Q174.33 21.72 174.33 23.46L174.33 23.46Q174.33 25.19 174.82 26.48Q175.31 27.77 176.23 28.49Q177.15 29.21 178.45 29.21ZM194.24 40.14L189.11 40.14L189.11 13.89L194.16 13.89L194.16 17.11L194.40 17.11Q194.75 16.35 195.41 15.55Q196.07 14.75 197.15 14.20Q198.22 13.65 199.85 13.65L199.85 13.65Q201.97 13.65 203.73 14.75Q205.49 15.84 206.54 18.03Q207.59 20.22 207.59 23.48L207.59 23.48Q207.59 26.66 206.56 28.86Q205.54 31.05 203.78 32.19Q202.02 33.32 199.81 33.32L199.81 33.32Q198.26 33.32 197.18 32.79Q196.10 32.27 195.43 31.49Q194.75 30.71 194.40 29.94L194.40 29.94L194.24 29.94L194.24 40.14ZM198.24 29.21L198.24 29.21Q199.57 29.21 200.49 28.47Q201.40 27.74 201.87 26.44Q202.34 25.14 202.34 23.46L202.34 23.46Q202.34 21.79 201.87 20.51Q201.40 19.23 200.50 18.49Q199.59 17.76 198.24 17.76L198.24 17.76Q196.92 17.76 196.00 18.47Q195.08 19.17 194.60 20.45Q194.12 21.72 194.12 23.46L194.12 23.46Q194.12 25.19 194.61 26.48Q195.10 27.77 196.02 28.49Q196.94 29.21 198.24 29.21Z"></path></g>
        
      </svg>