
      <svg data-logo="logo" xmlns="http://www.w3.org/2000/svg" viewBox="0 0 256 43">
        <g id="logogram" transform="translate(0, 1) rotate(0) "><path fill-rule="evenodd" clip-rule="evenodd" d="M26.461 12.3052C24.8165 11.2064 22.8831 10.6199 20.9053 10.6199V0.619934C24.8609 0.619934 28.7277 1.79291 32.0167 3.99054C35.3056 6.18817 37.8691 9.31174 39.3829 12.9663C40.8966 16.6208 41.2927 20.6421 40.521 24.5217C39.7493 28.4014 37.8444 31.965 35.0474 34.7621C32.2503 37.5591 28.6867 39.4639 24.8071 40.2356C20.9275 41.0073 16.9061 40.6113 13.2516 39.0975C9.59708 37.5838 6.47351 35.0203 4.27588 31.7313C2.07825 28.4423 0.905273 24.5756 0.905273 20.6199H10.9053C10.9053 22.5977 11.4918 24.5311 12.5906 26.1756C13.6894 27.8201 15.2512 29.1018 17.0784 29.8587C18.9057 30.6156 20.9164 30.8136 22.8562 30.4278C24.796 30.0419 26.5778 29.0895 27.9763 27.691C29.3749 26.2925 30.3273 24.5106 30.7131 22.5708C31.099 20.631 30.9009 18.6204 30.1441 16.7931C29.3872 14.9658 28.1055 13.404 26.461 12.3052Z" fill="#007DFC"/><path fill-rule="evenodd" clip-rule="evenodd" d="M10.9053 0.619965C10.9053 1.93318 10.6466 3.23354 10.1441 4.4468C9.64153 5.66006 8.90493 6.76245 7.97635 7.69103C7.04776 8.61962 5.94537 9.35621 4.73211 9.85876C3.51886 10.3613 2.2185 10.62 0.905279 10.62L0.905273 20.6199C3.53171 20.6199 6.13244 20.1026 8.55895 19.0976C10.9855 18.0925 13.1902 16.6193 15.0474 14.7621C16.9046 12.9049 18.3778 10.7001 19.3829 8.27363C20.388 5.84712 20.9053 3.24637 20.9053 0.619934L10.9053 0.619965Z" fill="#007DFC"/></g>
        <g id="logotype" transform="translate(47, 1.5)"><path fill="#000000" d="M19.64 33L13.67 33L6.84 7.54L12.53 7.54L15.48 20.06Q15.84 21.64 16.14 23.42Q16.44 25.21 16.73 27.01Q17.02 28.81 17.30 30.47L17.30 30.47L16.37 30.47Q16.68 28.81 16.99 27.01Q17.30 25.21 17.62 23.42Q17.95 21.64 18.34 20.06L18.34 20.06L21.45 7.54L26.87 7.54L29.96 20.06Q30.35 21.64 30.68 23.42Q31.00 25.21 31.32 27.01Q31.63 28.81 31.94 30.47L31.94 30.47L30.99 30.47Q31.28 28.81 31.56 27.01Q31.84 25.21 32.16 23.42Q32.47 21.64 32.81 20.06L32.81 20.06L35.77 7.54L41.48 7.54L34.63 33L28.68 33L25.29 19.98Q24.75 17.81 24.36 15.27Q23.98 12.73 23.50 10.07L23.50 10.07L24.80 10.07Q24.27 12.68 23.94 15.18Q23.60 17.67 23.00 19.98L23.00 19.98L19.64 33ZM50.86 33.38L50.86 33.38Q47.94 33.38 45.82 32.18Q43.70 30.98 42.56 28.78Q41.43 26.57 41.43 23.55L41.43 23.55Q41.43 20.59 42.55 18.37Q43.68 16.15 45.75 14.90Q47.82 13.65 50.60 13.65L50.60 13.65Q52.48 13.65 54.11 14.25Q55.73 14.85 56.96 16.06Q58.19 17.26 58.88 19.07Q59.57 20.88 59.57 23.34L59.57 23.34L59.57 24.78L43.53 24.78L43.53 21.57L57.06 21.57L54.67 22.42Q54.67 20.93 54.22 19.83Q53.76 18.73 52.87 18.12Q51.97 17.52 50.64 17.52L50.64 17.52Q49.32 17.52 48.39 18.13Q47.46 18.75 46.98 19.80Q46.50 20.85 46.50 22.20L46.50 22.20L46.50 24.47Q46.50 26.13 47.06 27.26Q47.61 28.39 48.61 28.95Q49.61 29.51 50.94 29.51L50.94 29.51Q51.85 29.51 52.58 29.26Q53.32 29.00 53.84 28.50Q54.36 27.99 54.64 27.26L54.64 27.26L59.28 28.13Q58.82 29.70 57.68 30.89Q56.53 32.08 54.82 32.73Q53.10 33.38 50.86 33.38ZM66.14 33.38L66.14 33.38Q64.32 33.38 62.88 32.74Q61.44 32.09 60.61 30.82Q59.78 29.55 59.78 27.65L59.78 27.65Q59.78 26.06 60.37 24.98Q60.96 23.91 61.97 23.26Q62.99 22.61 64.28 22.27Q65.57 21.93 66.99 21.79L66.99 21.79Q68.65 21.62 69.66 21.47Q70.68 21.33 71.15 21.01Q71.62 20.70 71.62 20.08L71.62 20.08L71.62 19.99Q71.62 19.17 71.28 18.61Q70.94 18.05 70.27 17.75Q69.60 17.45 68.63 17.45L68.63 17.45Q67.64 17.45 66.90 17.75Q66.17 18.05 65.71 18.54Q65.25 19.04 65.02 19.65L65.02 19.65L60.32 18.87Q60.82 17.21 61.97 16.05Q63.11 14.88 64.81 14.27Q66.51 13.65 68.63 13.65L68.63 13.65Q70.19 13.65 71.64 14.02Q73.09 14.39 74.24 15.16Q75.40 15.93 76.07 17.16Q76.75 18.39 76.75 20.13L76.75 20.13L76.75 33L71.89 33L71.89 30.35L71.72 30.35Q71.26 31.24 70.49 31.91Q69.72 32.59 68.64 32.98Q67.55 33.38 66.14 33.38ZM67.59 29.77L67.59 29.77Q68.80 29.77 69.72 29.29Q70.63 28.81 71.14 27.99Q71.66 27.17 71.66 26.16L71.66 26.16L71.66 24.10Q71.43 24.27 70.97 24.40Q70.51 24.54 69.95 24.64Q69.38 24.75 68.84 24.83Q68.29 24.92 67.86 24.97L67.86 24.97Q66.92 25.10 66.20 25.41Q65.49 25.72 65.09 26.22Q64.70 26.73 64.70 27.51L64.70 27.51Q64.70 28.25 65.08 28.75Q65.45 29.26 66.09 29.51Q66.73 29.77 67.59 29.77ZM77.00 13.89L88.33 13.89L88.33 17.81L77.00 17.81L77.00 13.89ZM79.63 27.86L79.63 9.35L84.76 9.35L84.76 27.41Q84.76 28.32 85.16 28.75Q85.56 29.19 86.50 29.19L86.50 29.19Q86.79 29.19 87.32 29.11Q87.85 29.04 88.13 28.97L88.13 28.97L88.86 32.81Q88.01 33.07 87.16 33.17Q86.32 33.27 85.55 33.27L85.55 33.27Q82.68 33.27 81.15 31.87Q79.63 30.47 79.63 27.86L79.63 27.86ZM94.52 21.94L94.52 21.94L94.52 33L89.39 33L89.39 7.54L94.41 7.54L94.41 18.66L94.00 18.66Q94.76 16.27 96.29 14.96Q97.82 13.65 100.24 13.65L100.24 13.65Q102.22 13.65 103.70 14.52Q105.18 15.38 105.99 17.00Q106.80 18.61 106.80 20.85L106.80 20.85L106.80 33L101.68 33L101.68 21.74Q101.68 19.96 100.76 18.95Q99.85 17.94 98.23 17.94L98.23 17.94Q97.15 17.94 96.30 18.41Q95.46 18.88 94.99 19.77Q94.52 20.66 94.52 21.94ZM117.54 33.38L117.54 33.38Q114.61 33.38 112.49 32.18Q110.37 30.98 109.24 28.78Q108.10 26.57 108.10 23.55L108.10 23.55Q108.10 20.59 109.23 18.37Q110.36 16.15 112.43 14.90Q114.49 13.65 117.28 13.65L117.28 13.65Q119.16 13.65 120.78 14.25Q122.41 14.85 123.64 16.06Q124.87 17.26 125.56 19.07Q126.25 20.88 126.25 23.34L126.25 23.34L126.25 24.78L110.20 24.78L110.20 21.57L123.74 21.57L121.35 22.42Q121.35 20.93 120.89 19.83Q120.44 18.73 119.54 18.12Q118.65 17.52 117.31 17.52L117.31 17.52Q116.00 17.52 115.07 18.13Q114.13 18.75 113.66 19.80Q113.18 20.85 113.18 22.20L113.18 22.20L113.18 24.47Q113.18 26.13 113.73 27.26Q114.29 28.39 115.29 28.95Q116.29 29.51 117.62 29.51L117.62 29.51Q118.53 29.51 119.26 29.26Q120.00 29.00 120.52 28.50Q121.04 27.99 121.31 27.26L121.31 27.26L125.96 28.13Q125.50 29.70 124.35 30.89Q123.21 32.08 121.49 32.73Q119.77 33.38 117.54 33.38ZM132.61 33L127.48 33L127.48 13.89L132.44 13.89L132.44 17.23L132.64 17.23Q133.17 15.45 134.41 14.54Q135.65 13.64 137.25 13.64L137.25 13.64Q137.65 13.64 138.10 13.68Q138.55 13.72 138.91 13.81L138.91 13.81L138.91 18.39Q138.57 18.27 137.92 18.20Q137.27 18.13 136.69 18.13L136.69 18.13Q135.53 18.13 134.59 18.64Q133.65 19.14 133.13 20.04Q132.61 20.93 132.61 22.13L132.61 22.13L132.61 33ZM149.88 33L144.12 33L152.82 7.54L159.66 7.54L168.58 33L162.78 33L158.70 20.71Q157.96 18.34 157.20 15.51Q156.44 12.68 155.61 9.33L155.61 9.33L156.73 9.33Q155.93 12.70 155.22 15.54Q154.51 18.39 153.81 20.71L153.81 20.71L149.88 33ZM163.14 27.09L149.56 27.09L149.56 23.00L163.14 23.00L163.14 27.09ZM174.45 40.14L169.33 40.14L169.33 13.89L174.37 13.89L174.37 17.11L174.61 17.11Q174.97 16.35 175.62 15.55Q176.28 14.75 177.36 14.20Q178.44 13.65 180.06 13.65L180.06 13.65Q182.18 13.65 183.94 14.75Q185.70 15.84 186.75 18.03Q187.80 20.22 187.80 23.48L187.80 23.48Q187.80 26.66 186.77 28.86Q185.75 31.05 183.99 32.19Q182.23 33.32 180.02 33.32L180.02 33.32Q178.47 33.32 177.39 32.79Q176.32 32.27 175.64 31.49Q174.97 30.71 174.61 29.94L174.61 29.94L174.45 29.94L174.45 40.14ZM178.45 29.21L178.45 29.21Q179.79 29.21 180.70 28.47Q181.61 27.74 182.08 26.44Q182.55 25.14 182.55 23.46L182.55 23.46Q182.55 21.79 182.08 20.51Q181.61 19.23 180.71 18.49Q179.80 17.76 178.45 17.76L178.45 17.76Q177.14 17.76 176.21 18.47Q175.29 19.17 174.81 20.45Q174.33 21.72 174.33 23.46L174.33 23.46Q174.33 25.19 174.82 26.48Q175.31 27.77 176.23 28.49Q177.15 29.21 178.45 29.21ZM194.24 40.14L189.11 40.14L189.11 13.89L194.16 13.89L194.16 17.11L194.40 17.11Q194.75 16.35 195.41 15.55Q196.07 14.75 197.15 14.20Q198.22 13.65 199.85 13.65L199.85 13.65Q201.97 13.65 203.73 14.75Q205.49 15.84 206.54 18.03Q207.59 20.22 207.59 23.48L207.59 23.48Q207.59 26.66 206.56 28.86Q205.54 31.05 203.78 32.19Q202.02 33.32 199.81 33.32L199.81 33.32Q198.26 33.32 197.18 32.79Q196.10 32.27 195.43 31.49Q194.75 30.71 194.40 29.94L194.40 29.94L194.24 29.94L194.24 40.14ZM198.24 29.21L198.24 29.21Q199.57 29.21 200.49 28.47Q201.40 27.74 201.87 26.44Q202.34 25.14 202.34 23.46L202.34 23.46Q202.34 21.79 201.87 20.51Q201.40 19.23 200.50 18.49Q199.59 17.76 198.24 17.76L198.24 17.76Q196.92 17.76 196.00 18.47Q195.08 19.17 194.60 20.45Q194.12 21.72 194.12 23.46L194.12 23.46Q194.12 25.19 194.61 26.48Q195.10 27.77 196.02 28.49Q196.94 29.21 198.24 29.21Z"/></g>
        
      </svg>
    